<svg xmlns="http://www.w3.org/2000/svg" viewBox="0 0 120 32" fill="none" aria-hidden="true">
  <path
    fill="#ffffff"
    d="M8.2 4.5h3.4l6.8 17.2h-3.6l-1.2-3.2H9.2l-1.2 3.2H4.4L8.2 4.5zm-.4 10.8h4.8L10 9.8l-2.2 5.5zM28.1 4.5h3.1v17.2h-3.1V4.5zm9.8 0h8.5c3.4 0 5.8 2.2 5.8 5.6 0 2.5-1.3 4.2-3.4 5l4.1 6.6h-3.7l-3.7-6h-4.5v6h-3.1V4.5zm8.2 9.1c1.8 0 2.8-.9 2.8-2.4s-1-2.4-2.8-2.4h-5.1v4.8h5.1zm15.2-9.1h3.1l7.2 17.2h-3.4l-1.3-3.2h-6.8l-1.3 3.2h-3.3L61.3 4.5zm1.8 10.8h4.5l-2.2-5.5-2.3 5.5zM78.4 4.5h3.1v14.1h8.9v3.1H78.4V4.5zm14.5 0h3.1v17.2h-3.1V4.5zm9.2 0h8.6c3.3 0 5.6 1.9 5.6 5.1 0 2.2-1.2 3.8-3.1 4.6v.1c2.3.5 3.8 2.3 3.8 4.9 0 3.4-2.4 5.5-6.1 5.5h-8.8V4.5zm8.3 8.6c1.9 0 2.9-.9 2.9-2.3 0-1.5-1-2.3-2.9-2.3h-5.2v4.6h5.2zm.3 8.7c2.1 0 3.2-1 3.2-2.6 0-1.6-1.1-2.5-3.2-2.5h-5.5v5.1h5.5z"
  />
</svg>
